<svg xmlns="http://www.w3.org/2000/svg" version="1.1" xmlns:xlink="http://www.w3.org/1999/xlink" xmlns:svgjs="http://svgjs.dev/svgjs" viewBox="0 0 800 800" opacity="0.36"><defs><linearGradient x1="50%" y1="0%" x2="50%" y2="100%" id="ccchaos-grad"><stop stop-color="hsl(206, 75%, 49%)" stop-opacity="1" offset="0%"></stop><stop stop-color="hsl(331, 90%, 56%)" stop-opacity="1" offset="100%"></stop></linearGradient></defs><g stroke-width="2" stroke="url(#ccchaos-grad)" fill="none" stroke-linecap="round"><path d="M381.02 70.8C391.73 73.98 402.25 77.77 412.56 81.94 422.88 85.8 432.99 89.71 442.89 93.54 452.82 96.7 462.56 99.65 472.12 102.4 481.75 104.44 491.25 106.39 500.63 108.31 510.15 109.8 519.61 111.51 529.05 113.57 538.7 115.57 548.39 118.17 558.14 121.43 568.17 124.97 578.31 129.34 588.56 134.54 599.11 140.2 609.77 146.72 620.51 154.05 631.48 161.85 642.44 170.38 653.31 179.56 664.22 189.11 674.87 199.18 685.11 209.68 695.1 220.41 704.44 231.46 712.94 242.73 720.85 254.12 727.68 265.66 733.27 277.28 737.98 288.95 741.29 300.66 743.1 312.39 743.95 324.12 743.32 335.86 741.24 347.57 738.43 359.28 734.4 370.98 729.32 382.62 724.02 394.26 718.08 405.86 711.74 417.38 705.86 428.89 700.16 440.02 694.82 450.74 690.44 461.43 686.63 471.68 683.43 481.42 681.32 491.1 679.77 500.22 678.71 508.75 678.53 517.17 678.59 524.96 678.75 532.08 679.61 542.26 679.75 559.41 678.25 566.67 676.75 571.55 674.35 576.18 671.03 580.72 667.28 585.79 662.58 591.06 656.95 596.71 650.88 603.26 643.94 610.47 636.21 618.44 628.11 627.51 619.33 637.42 609.96 648.12 600.33 659.72 590.22 671.82 579.73 684.15 569.1 696.63 558.16 708.71 547.01 719.92 535.8 730.2 524.44 738.86 512.97 745.47 501.5 750.24 489.97 752.52 478.41 752.18 466.87 749.88 455.31 745.22 443.78 738.5 432.26 730.83 420.75 722.06 409.28 712.81 397.82 704.34 386.65 696.73 375.77 690.42 364.88 686.13 354.27 683.54 343.93 682.62 333.56 683.74 323.44 686.12 313.58 689.36 303.66 693.68 293.97 698 284.52 701.9 274.98 705.6 265.65 708.11 256.55 709.13 247.33 709.08 238.31 707.21 229.5 703.52 220.57 698.49 211.84 691.73 203.33 683.44 194.71 674.09 186.31 663.57 178.16 652.13 169.93 640.14 161.98 627.62 154.34 614.81 146.67 601.91 139.35 588.97 132.42 576.15 125.53 563.5 119.07 551.08 113.09 538.92 107.21 527.04 101.85 515.41 97.04 504.02 92.37 492.88 88.29 481.9 84.81 471.06 81.5 460.38 78.8 449.75 76.74 439.14 74.84 428.6 73.56 418.01 72.93 407.36 72.42 396.74 72.53 386.02 73.29 375.22 74.1 364.42 75.51 353.79 77.46 343.36 79.4 332.95 81.85 322.76 84.77 312.85 87.61 302.98 90.89 293.43 94.55 284.25 98.09 275.14 102 266.43 106.24 258.18 110.32 250.02 114.72 242.32 119.42 235.12 123.95 227.98 128.79 221.31 133.92 215.1 138.91 208.87 144.22 203.02 149.84 197.52 155.37 191.84 161.24 186.37 167.45 181.06 173.62 175.38 180.16 169.72 187.06 164.01 193.97 157.79 201.26 151.43 208.92 144.93 216.62 137.9 224.7 130.76 233.13 123.56 241.61 116.02 250.43 108.61 259.57 101.46 268.76 94.34 278.24 87.77 287.98 81.94 297.76 76.56 307.77 72.18 317.97 68.95 328.2 66.45 338.6 65.21 349.12 65.26 359.65 66 370.29 67.88 381.01 70.79" stroke-dasharray="1 9" transform="rotate(0, 400, 400)" opacity="1.00"></path><path d="M380.12 83.14C390.4 86.32 400.53 90.07 410.51 94.21 420.48 98.07 430.31 102 439.98 105.87 449.68 109.12 459.25 112.19 468.69 115.05 478.19 117.24 487.62 119.31 496.98 121.32 506.46 122.86 515.93 124.57 525.4 126.53 535.05 128.37 544.76 130.7 554.53 133.59 564.53 136.68 574.63 140.5 584.81 145.07 595.21 150.02 605.68 155.78 616.17 162.31 626.8 169.27 637.36 176.96 647.75 185.29 658.11 194 668.14 203.27 677.71 213 686.98 222.99 695.57 233.34 703.32 243.98 710.48 254.76 716.6 265.75 721.52 276.86 725.64 288.05 728.44 299.32 729.85 310.61 730.41 321.94 729.62 333.28 727.5 344.58 724.74 355.89 720.88 367.17 716.05 378.36 711.05 389.56 705.45 400.67 699.46 411.64 693.9 422.62 688.45 433.18 683.31 443.3 679.02 453.39 675.21 463.01 671.93 472.11 669.64 481.17 667.84 489.68 666.48 497.62 665.94 505.49 665.64 512.77 665.45 519.47 665.84 529.18 665.51 546.12 664.07 553.72 662.74 558.97 660.63 564.13 657.7 569.33 654.43 575.1 650.3 581.18 645.31 587.68 639.94 595.05 633.75 603.05 626.81 611.74 619.53 621.37 611.57 631.69 603.01 642.62 594.21 654.2 584.9 666.07 575.18 677.96 565.3 689.78 555.09 701.03 544.61 711.3 534.06 720.56 523.31 728.2 512.43 733.86 501.51 737.79 490.5 739.4 479.42 738.61 468.35 736.08 457.23 731.42 446.11 724.9 434.99 717.56 423.86 709.24 412.75 700.46 401.63 692.4 390.78 685.08 380.21 678.9 369.61 674.54 359.27 671.69 349.18 670.35 339.06 670.91 329.17 672.65 319.52 675.25 309.81 678.96 300.31 682.8 291.03 686.39 281.68 689.99 272.52 692.63 263.56 694.05 254.51 694.64 245.64 693.63 236.97 691 228.21 687.19 219.63 681.76 211.27 674.85 202.82 666.91 194.59 657.75 186.61 647.59 178.58 636.8 170.81 625.34 163.36 613.44 155.89 601.3 148.77 588.97 142.04 576.6 135.36 564.29 129.11 552.07 123.32 540.03 117.64 528.17 112.46 516.51 107.83 505.07 103.35 493.81 99.42 482.73 96.1 471.83 92.93 461.06 90.37 450.39 88.44 439.82 86.65 429.32 85.49 418.85 84.96 408.41 84.54 397.99 84.74 387.56 85.57 377.15 86.45 366.73 87.91 356.56 89.88 346.66 91.86 336.76 94.31 327.15 97.21 317.86 100.04 308.59 103.28 299.67 106.89 291.14 110.38 282.64 114.21 274.55 118.35 266.9 122.34 259.29 126.63 252.11 131.21 245.38 135.62 238.64 140.31 232.32 145.29 226.38 150.11 220.34 155.24 214.61 160.65 209.14 165.96 203.43 171.58 197.87 177.53 192.39 183.41 186.52 189.64 180.62 196.21 174.66 202.76 168.19 209.67 161.61 216.93 154.9 224.2 147.72 231.83 140.47 239.79 133.24 247.79 125.74 256.12 118.42 264.75 111.44 273.42 104.55 282.38 98.24 291.59 92.7 300.84 87.62 310.32 83.54 320 80.58 329.7 78.33 339.59 77.28 349.62 77.47 359.66 78.3 369.83 80.23 380.11 83.14" stroke-dasharray="1 6" transform="rotate(4.04, 400, 400)" opacity="0.96"></path><path d="M380.09 95.49C389.95 98.64 399.72 102.36 409.37 106.45 419.03 110.3 428.58 114.24 438.03 118.14 447.5 121.47 456.89 124.64 466.2 127.63 475.58 129.96 484.91 132.16 494.21 134.28 503.62 135.92 513.05 137.65 522.49 139.58 532.09 141.31 541.74 143.44 551.45 146.05 561.34 148.76 571.31 152.1 581.31 156.11 591.48 160.42 601.67 165.47 611.81 171.24 622.02 177.39 632.11 184.24 641.96 191.73 651.71 199.57 661.09 207.99 669.96 216.89 678.51 226.07 686.35 235.65 693.37 245.55 699.81 255.63 705.24 265.95 709.55 276.44 713.11 287.03 715.45 297.74 716.51 308.5 716.82 319.31 715.89 330.15 713.75 340.95 711.07 351.78 707.38 362.56 702.81 373.25 698.1 383.95 692.83 394.55 687.19 404.98 681.92 415.41 676.74 425.42 671.79 434.98 667.61 444.52 663.82 453.58 660.49 462.15 658.04 470.69 656.02 478.71 654.39 486.22 653.53 493.69 652.9 500.65 652.38 507.11 652.36 513.59 652.23 519.64 651.87 525.3 651.39 533.88 647.76 550.63 644.19 559.4 641.31 565.89 637.65 572.72 633.22 580 628.47 588.06 622.95 596.7 616.72 605.93 610.19 615.93 603 626.47 595.23 637.42 587.21 648.81 578.69 660.29 569.72 671.59 560.6 682.66 551.11 693.02 541.33 702.31 531.46 710.57 521.36 717.22 511.07 721.98 500.75 725.14 490.28 726.15 479.72 724.97 469.15 722.25 458.5 717.61 447.81 711.3 437.12 704.31 426.4 696.43 415.66 688.12 404.92 680.46 394.41 673.44 384.14 667.4 373.85 663 363.79 659.93 353.96 658.22 344.09 658.25 334.44 659.38 325 661.36 315.51 664.46 306.21 667.78 297.12 671 287.95 674.39 278.97 677.05 270.17 678.72 261.3 679.78 252.6 679.47 244.09 677.73 235.5 675 227.1 670.77 218.91 665.14 210.65 658.56 202.61 650.75 194.82 641.9 186.99 632.38 179.44 622.1 172.19 611.24 164.95 600.05 158.05 588.53 151.54 576.84 145.08 565.08 139.04 553.3 133.47 541.6 128 529.97 123.03 518.48 118.59 507.16 114.29 495.97 110.54 484.94 107.38 474.09 104.37 463.35 101.95 452.74 100.15 442.26 98.49 431.85 97.44 421.53 97 411.31 96.68 401.1 96.96 390.96 97.84 380.91 98.79 370.85 100.29 361.09 102.28 351.66 104.28 342.23 106.74 333.12 109.62 324.37 112.43 315.62 115.63 307.23 119.18 299.24 122.62 291.25 126.38 283.66 130.43 276.48 134.34 269.29 138.53 262.49 142.99 256.09 147.29 249.63 151.85 243.51 156.68 237.71 161.36 231.75 166.31 226.03 171.54 220.5 176.65 214.68 182.05 208.95 187.75 203.26 193.38 197.17 199.33 191.03 205.58 184.8 211.81 178.12 218.37 171.33 225.25 164.45 232.14 157.18 239.35 149.89 246.88 142.67 254.43 135.27 262.3 128.11 270.45 121.33 278.63 114.7 287.1 108.69 295.82 103.46 304.56 98.71 313.54 94.93 322.73 92.24 331.94 90.24 341.34 89.38 350.91 89.7 360.48 90.62 370.21 92.58 380.08 95.49" stroke-dasharray="2 2" transform="rotate(8.08, 400, 400)" opacity="0.92"></path><path d="M380.91 107.84C390.39 110.96 399.8 114.62 409.14 118.66 418.49 122.49 427.78 126.42 436.99 130.35 446.24 133.75 455.45 137.01 464.6 140.11 473.82 142.59 483.03 144.93 492.23 147.18 501.53 148.93 510.85 150.74 520.19 152.67 529.67 154.36 539.2 156.36 548.76 158.75 558.46 161.16 568.2 164.11 577.95 167.64 587.8 171.39 597.62 175.8 607.33 180.87 617.06 186.25 626.61 192.3 635.86 198.97 644.98 205.95 653.68 213.51 661.84 221.57 669.66 229.89 676.78 238.64 683.08 247.75 688.83 257.04 693.63 266.62 697.36 276.39 700.41 286.29 702.34 296.34 703.09 306.47 703.18 316.68 702.14 326.93 700.01 337.16 697.41 347.43 693.9 357.66 689.58 367.81 685.16 377.97 680.22 388.02 674.91 397.91 669.94 407.81 665.01 417.29 660.27 426.34 656.2 435.38 652.46 443.98 649.09 452.11 646.52 460.23 644.32 467.9 642.45 475.11 641.3 482.32 640.35 489.11 639.52 495.5 639.18 501.96 638.76 508.09 638.18 513.96 637.81 520.03 637.09 525.95 635.92 531.83 634.73 538.08 632.96 544.44 630.57 551.01 627.99 558.15 624.72 565.65 620.76 573.58 616.54 582.19 611.62 591.29 606.03 600.87 600.18 611.05 593.7 621.6 586.64 632.39 579.38 643.42 571.6 654.37 563.37 664.97 554.99 675.21 546.22 684.64 537.12 692.95 527.94 700.22 518.49 705.93 508.82 709.84 499.1 712.28 489.21 712.76 479.19 711.25 469.15 708.38 459 703.8 448.77 697.73 438.54 691.08 428.24 683.63 417.89 675.77 407.55 668.51 397.39 661.78 387.45 655.91 377.49 651.49 367.72 648.25 358.16 646.21 348.57 645.76 339.17 646.33 329.95 647.71 320.7 650.19 311.61 652.98 302.71 655.78 293.76 658.87 284.96 661.43 276.35 663.21 267.67 664.58 259.16 664.81 250.84 663.79 242.45 661.97 234.24 658.81 226.25 654.34 218.2 649.02 210.37 642.51 202.79 634.96 195.2 626.74 187.87 617.68 180.85 607.97 173.85 597.86 167.19 587.3 160.91 576.45 154.7 565.45 148.9 554.31 143.54 543.13 138.31 531.96 133.55 520.84 129.31 509.82 125.22 498.87 121.66 488.06 118.66 477.39 115.82 466.81 113.55 456.36 111.88 446.07 110.35 435.82 109.41 425.7 109.06 415.72 108.84 405.76 109.19 395.91 110.12 386.19 111.12 376.48 112.65 367.1 114.66 358.09 116.67 349.06 119.12 340.39 121.97 332.08 124.76 323.76 127.93 315.81 131.42 308.24 134.8 300.66 138.5 293.44 142.47 286.6 146.3 279.71 150.4 273.18 154.75 266.97 158.94 260.66 163.39 254.63 168.08 248.85 172.63 242.88 177.43 237.08 182.48 231.41 187.42 225.43 192.63 219.5 198.1 213.57 203.5 207.25 209.19 200.87 215.17 194.41 221.1 187.55 227.34 180.61 233.88 173.61 240.41 166.3 247.24 159.03 254.38 151.88 261.51 144.63 268.95 137.68 276.67 131.15 284.39 124.83 292.4 119.14 300.66 114.23 308.92 109.82 317.44 106.36 326.17 103.94 334.91 102.18 343.85 101.51 352.98 101.95 362.12 102.96 371.43 104.95 380.9 107.83" stroke-dasharray="1 0" transform="rotate(12.12, 400, 400)" opacity="0.89"></path><path d="M382.56 120.18C391.66 123.26 400.74 126.87 409.77 130.84 418.81 134.63 427.83 138.55 436.81 142.48 445.82 145.94 454.81 149.29 463.79 152.49 472.82 155.11 481.87 157.6 490.91 159.99 500.04 161.88 509.2 163.79 518.38 165.77 527.67 167.47 536.99 169.4 546.32 171.64 555.75 173.84 565.19 176.48 574.58 179.62 584.04 182.89 593.42 186.75 602.64 191.19 611.83 195.89 620.79 201.2 629.42 207.08 637.87 213.25 645.88 219.96 653.33 227.18 660.43 234.64 666.84 242.54 672.46 250.82 677.56 259.28 681.76 268.06 684.96 277.07 687.56 286.21 689.11 295.53 689.59 304.97 689.5 314.49 688.39 324.09 686.28 333.7 683.78 343.35 680.45 352.99 676.39 362.56 672.24 372.15 667.61 381.65 662.63 391.01 657.95 400.38 653.28 409.37 648.74 417.97 644.8 426.57 641.12 434.77 637.74 442.57 635.08 450.37 632.72 457.78 630.65 464.82 629.24 471.89 628 478.63 626.88 485.08 626.23 491.62 625.54 497.95 624.72 504.12 624.14 510.52 623.27 516.87 622.03 523.26 620.83 530.03 619.14 536.96 616.91 544.14 614.56 551.83 611.59 559.87 608.02 568.29 604.24 577.28 599.83 586.66 594.8 596.39 589.55 606.56 583.71 616.94 577.33 627.39 570.75 637.92 563.67 648.21 556.14 658.03 548.47 667.38 540.39 675.86 531.98 683.19 523.47 689.5 514.67 694.31 505.62 697.44 496.53 699.24 487.23 699.25 477.75 697.46 468.26 694.49 458.63 689.99 448.88 684.17 439.13 677.86 429.28 670.83 419.35 663.42 409.42 656.55 399.65 650.13 390.05 644.43 380.44 640.03 370.99 636.64 361.71 634.31 352.42 633.43 343.28 633.48 334.31 634.3 325.31 636.18 316.47 638.41 307.78 640.75 299.06 643.48 290.48 645.84 282.08 647.61 273.62 649.15 265.32 649.75 257.2 649.3 249.04 648.22 241.06 645.95 233.28 642.51 225.47 638.33 217.88 633.03 210.54 626.71 203.19 619.75 196.12 611.94 189.34 603.41 182.61 594.45 176.21 584.97 170.18 575.09 164.23 564.99 158.68 554.65 153.57 544.18 148.58 533.64 144.05 523.07 140.02 512.53 136.14 502 132.77 491.55 129.95 481.22 127.29 470.92 125.17 460.76 123.63 450.73 122.23 440.75 121.4 430.9 121.14 421.2 121 411.52 121.42 401.98 122.4 392.59 123.44 383.2 125 374.18 127.01 365.53 129.02 356.86 131.46 348.55 134.28 340.61 137.05 332.65 140.16 325.04 143.6 317.78 146.93 310.49 150.56 303.54 154.45 296.92 158.2 290.23 162.22 283.83 166.47 277.71 170.57 271.46 174.91 265.43 179.48 259.58 183.9 253.52 188.57 247.58 193.47 241.72 198.24 235.56 203.27 229.4 208.55 223.23 213.74 216.71 219.2 210.12 224.93 203.47 230.59 196.47 236.55 189.43 242.78 182.39 248.98 175.11 255.47 167.92 262.24 160.91 269 153.86 276.05 147.17 283.36 140.93 290.67 134.94 298.25 129.6 306.08 125.04 313.91 120.98 321.99 117.83 330.29 115.69 338.59 114.16 347.11 113.67 355.82 114.23 364.54 115.31 373.46 117.32 382.56 120.18" stroke-dasharray="2 4" transform="rotate(16.16, 400, 400)" opacity="0.85"></path><path d="M384.97 132.53C393.71 135.56 402.45 139.1 411.17 142.99 419.91 146.74 428.65 150.62 437.37 154.55 446.12 158.05 454.88 161.46 463.64 164.76 472.45 167.52 481.28 170.15 490.12 172.68 499.03 174.73 507.96 176.76 516.91 178.82 525.93 180.58 534.97 182.5 543.99 184.67 553.08 186.72 562.14 189.14 571.11 191.97 580.11 194.86 588.98 198.26 597.66 202.17 606.27 206.26 614.6 210.9 622.57 216.08 630.35 221.48 637.66 227.41 644.4 233.82 650.81 240.45 656.55 247.51 661.51 254.96 666.01 262.58 669.65 270.54 672.37 278.76 674.55 287.1 675.78 295.66 676.03 304.37 675.79 313.17 674.62 322.07 672.56 331.02 670.17 340.02 667.02 349.04 663.21 358.02 659.34 367.03 655.02 375.98 650.35 384.83 645.96 393.69 641.54 402.23 637.21 410.43 633.41 418.64 629.8 426.51 626.44 434.06 623.71 441.62 621.23 448.87 618.99 455.84 617.34 462.86 615.85 469.64 614.47 476.21 613.53 482.92 612.57 489.5 611.52 496.01 610.72 502.75 609.68 509.53 608.35 516.4 607.09 523.63 605.41 531.05 603.28 538.72 601.09 546.83 598.36 555.25 595.09 563.99 591.68 573.16 587.69 582.62 583.15 592.32 578.43 602.29 573.16 612.33 567.37 622.29 561.42 632.19 554.98 641.73 548.1 650.69 541.1 659.12 533.69 666.64 525.93 673.01 518.08 678.41 509.92 682.39 501.49 684.8 493.01 686.02 484.3 685.62 475.39 683.61 466.46 680.58 457.35 676.19 448.1 670.62 438.85 664.66 429.46 658.05 419.97 651.08 410.48 644.59 401.11 638.47 391.87 632.96 382.64 628.6 373.53 625.1 364.56 622.54 355.58 621.27 346.74 620.85 338.04 621.14 329.32 622.44 320.73 624.12 312.3 625.97 303.83 628.29 295.5 630.37 287.32 632.02 279.12 633.59 271.06 634.41 263.18 634.37 255.27 633.86 247.54 632.32 240.01 629.75 232.47 626.56 225.14 622.34 218.06 617.16 210.99 611.4 204.19 604.79 197.69 597.44 191.24 589.66 185.12 581.29 179.36 572.46 173.69 563.37 168.4 553.96 163.55 544.32 158.81 534.57 154.52 524.69 150.72 514.77 147.06 504.82 143.9 494.88 141.26 485.01 138.77 475.14 136.81 465.37 135.4 455.71 134.14 446.08 133.41 436.57 133.24 427.2 133.18 417.85 133.66 408.64 134.68 399.58 135.76 390.52 137.32 381.83 139.33 373.5 141.34 365.15 143.76 357.15 146.55 349.49 149.28 341.81 152.34 334.46 155.72 327.43 158.99 320.35 162.55 313.56 166.36 307.06 170.04 300.47 173.97 294.13 178.13 288 182.14 281.73 186.38 275.62 190.83 269.65 195.15 263.47 199.69 257.35 204.44 251.28 209.08 244.93 213.95 238.57 219.05 232.19 224.05 225.49 229.31 218.74 234.81 211.96 240.24 204.9 245.93 197.83 251.88 190.81 257.79 183.62 263.97 176.58 270.42 169.77 276.83 162.99 283.52 156.59 290.47 150.69 297.4 145.06 304.59 140.1 312.03 135.9 319.45 132.18 327.12 129.35 335.02 127.48 342.92 126.19 351.03 125.87 359.36 126.53 367.69 127.68 376.22 129.7 384.96 132.53" stroke-dasharray="1 2" transform="rotate(20.200000000000003, 400, 400)" opacity="0.81"></path><path d="M388.03 144.87C396.41 147.85 404.82 151.31 413.23 155.12 421.65 158.8 430.09 162.64 438.54 166.54 447.01 170.06 455.51 173.53 464.01 176.91 472.55 179.79 481.12 182.56 489.69 185.23 498.32 187.44 506.97 189.61 515.61 191.79 524.3 193.64 532.99 195.61 541.63 197.75 550.31 199.73 558.92 202.01 567.42 204.62 575.9 207.22 584.21 210.26 592.3 213.73 600.29 217.32 607.98 221.39 615.28 225.95 622.38 230.67 629 235.88 635.07 241.55 640.8 247.39 645.89 253.66 650.25 260.32 654.18 267.12 657.32 274.27 659.6 281.7 661.41 289.25 662.36 297.04 662.42 305.02 662.06 313.07 660.86 321.26 658.86 329.55 656.58 337.87 653.63 346.26 650.06 354.67 646.46 363.09 642.43 371.5 638.07 379.87 633.96 388.24 629.79 396.36 625.68 404.22 622.02 412.07 618.5 419.68 615.18 427.04 612.4 434.42 609.83 441.57 607.46 448.53 605.61 455.55 603.9 462.42 602.28 469.16 601.08 476.05 599.87 482.89 598.58 489.72 597.56 496.79 596.35 503.94 594.9 511.21 593.55 518.79 591.85 526.58 589.77 534.59 587.67 542.96 585.11 551.59 582.08 560.45 578.95 569.63 575.32 578.99 571.18 588.45 566.91 598.05 562.13 607.6 556.87 616.94 551.48 626.12 545.63 634.83 539.35 642.9 532.96 650.4 526.18 656.97 519.03 662.41 511.82 666.95 504.27 670.16 496.44 671.93 488.57 672.64 480.44 671.89 472.09 669.7 463.72 666.65 455.15 662.4 446.41 657.1 437.67 651.48 428.77 645.27 419.73 638.73 410.7 632.62 401.75 626.8 392.9 621.5 384.06 617.2 375.31 613.64 366.68 610.88 358.05 609.28 349.52 608.42 341.12 608.22 332.71 608.97 324.41 610.11 316.25 611.47 308.07 613.33 300.02 615.07 292.11 616.52 284.18 618.01 276.4 618.92 268.79 619.12 261.17 619.01 253.71 618.04 246.46 616.18 239.21 613.82 232.18 610.53 225.39 606.36 218.62 601.69 212.12 596.2 205.91 589.98 199.77 583.35 193.94 576.1 188.47 568.35 183.09 560.32 178.09 551.9 173.5 543.18 169.03 534.32 165 525.25 161.42 516.07 157.99 506.82 155.04 497.51 152.59 488.21 150.28 478.9 148.48 469.62 147.21 460.43 146.07 451.23 145.45 442.13 145.36 433.15 145.38 424.18 145.91 415.32 146.96 406.6 148.07 397.89 149.64 389.51 151.63 381.46 153.63 373.41 156.02 365.67 158.76 358.24 161.45 350.78 164.46 343.62 167.77 336.74 170.98 329.8 174.47 323.11 178.2 316.66 181.81 310.11 185.65 303.75 189.72 297.56 193.64 291.22 197.78 285.01 202.13 278.89 206.34 272.55 210.76 266.27 215.39 260 219.9 253.49 224.62 246.95 229.56 240.4 234.39 233.59 239.46 226.75 244.76 219.91 249.98 212.85 255.44 205.83 261.14 198.91 266.79 191.89 272.69 185.06 278.84 178.51 284.95 172.04 291.31 165.99 297.92 160.46 304.51 155.22 311.34 150.64 318.42 146.8 325.47 143.44 332.77 140.93 340.29 139.32 347.81 138.25 355.55 138.1 363.51 138.86 371.46 140.07 379.63 142.09 388.02 144.87" stroke-dasharray="6 5" transform="rotate(24.24, 400, 400)" opacity="0.77"></path><path d="M391.6 157.22C399.63 160.13 407.7 163.5 415.79 167.21 423.89 170.82 432.02 174.6 440.16 178.46 448.33 181.99 456.52 185.49 464.72 188.93 472.95 191.92 481.21 194.82 489.46 197.63 497.76 199.99 506.05 202.32 514.32 204.63 522.63 206.6 530.9 208.66 539.1 210.83 547.31 212.81 555.42 215.01 563.38 217.49 571.31 219.9 579.03 222.66 586.5 225.79 593.86 228.97 600.89 232.58 607.52 236.62 613.95 240.76 619.9 245.34 625.31 250.35 630.41 255.49 634.89 261.04 638.68 266.95 642.09 273 644.77 279.38 646.66 286.07 648.15 292.85 648.86 299.89 648.76 307.14 648.3 314.46 647.1 321.96 645.17 329.59 643.02 337.26 640.25 345.03 636.94 352.86 633.6 360.71 629.86 368.6 625.8 376.51 621.95 384.42 618.04 392.16 614.13 399.7 610.63 407.25 607.22 414.63 603.95 421.84 601.16 429.07 598.52 436.16 596.04 443.13 594.04 450.17 592.14 457.13 590.31 464.04 588.88 471.09 587.43 478.15 585.93 485.26 584.7 492.57 583.3 499.99 581.71 507.54 580.25 515.36 578.5 523.36 576.43 531.55 574.37 540.01 571.93 548.66 569.07 557.45 566.16 566.45 562.8 575.53 559 584.6 555.1 593.69 550.74 602.62 545.95 611.24 541.05 619.61 535.71 627.45 529.98 634.6 524.15 641.17 517.94 646.82 511.38 651.4 504.75 655.13 497.79 657.64 490.55 658.83 483.26 659.1 475.7 658.07 467.9 655.75 460.09 652.72 452.06 648.61 443.83 643.59 435.6 638.32 427.2 632.51 418.64 626.38 410.08 620.64 401.57 615.14 393.14 610.05 384.7 605.83 376.35 602.23 368.08 599.32 359.82 597.43 351.64 596.2 343.57 595.56 335.5 595.79 327.52 596.41 319.67 597.27 311.81 598.66 304.06 600.02 296.46 601.19 288.84 602.5 281.37 603.37 274.06 603.69 266.75 603.83 259.61 603.25 252.67 601.93 245.74 600.23 239.02 597.72 232.55 594.42 226.11 590.7 219.93 586.21 214.04 581.03 208.22 575.48 202.71 569.31 197.54 562.62 192.47 555.65 187.76 548.24 183.45 540.49 179.26 532.56 175.48 524.38 172.15 516.01 168.95 507.55 166.21 498.98 163.95 490.34 161.83 481.67 160.18 472.98 159.04 464.31 158.03 455.64 157.51 447.01 157.5 438.46 157.59 429.92 158.16 421.45 159.23 413.1 160.36 404.74 161.93 396.67 163.91 388.9 165.88 381.12 168.23 373.61 170.92 366.38 173.56 359.11 176.51 352.09 179.75 345.31 182.9 338.47 186.31 331.83 189.95 325.38 193.48 318.83 197.25 312.42 201.21 306.15 205.05 299.73 209.1 293.4 213.34 287.13 217.46 280.67 221.77 274.24 226.27 267.82 230.66 261.18 235.25 254.54 240.03 247.89 244.72 241.03 249.62 234.17 254.73 227.35 259.76 220.37 265.02 213.48 270.49 206.73 275.91 199.95 281.56 193.4 287.43 187.17 293.27 181.06 299.34 175.4 305.64 170.26 311.91 165.43 318.42 161.24 325.16 157.78 331.88 154.78 338.83 152.57 346 151.23 353.15 150.37 360.54 150.37 368.14 151.22 375.74 152.48 383.55 154.49 391.59 157.22" stroke-dasharray="9 1" transform="rotate(28.28, 400, 400)" opacity="0.73"></path><path d="M395.53 169.57C403.22 172.4 410.94 175.67 418.69 179.27 426.45 182.8 434.25 186.5 442.06 190.3 449.88 193.82 457.74 197.34 465.59 200.81 473.48 203.9 481.37 206.91 489.26 209.83 497.16 212.36 505.06 214.84 512.9 217.29 520.77 219.41 528.57 221.57 536.28 223.82 543.97 225.85 551.54 228.05 558.93 230.45 566.26 232.75 573.38 235.33 580.21 238.23 586.92 241.11 593.3 244.35 599.28 247.97 605.05 251.64 610.36 255.7 615.14 260.14 619.64 264.68 623.55 269.59 626.83 274.85 629.77 280.21 632.03 285.9 633.59 291.89 634.79 297.96 635.29 304.31 635.06 310.88 634.54 317.51 633.35 324.35 631.51 331.36 629.49 338.39 626.91 345.57 623.84 352.86 620.75 360.17 617.29 367.57 613.52 375.04 609.94 382.52 606.27 389.89 602.58 397.15 599.24 404.42 595.94 411.58 592.75 418.65 589.97 425.75 587.3 432.78 584.75 439.75 582.62 446.79 580.56 453.82 578.56 460.85 576.92 468.01 575.27 475.21 573.58 482.49 572.14 489.95 570.57 497.52 568.84 505.21 567.25 513.11 565.42 521.16 563.33 529.35 561.28 537.72 558.9 546.21 556.16 554.76 553.41 563.41 550.27 572.05 546.74 580.57 543.14 589.03 539.14 597.24 534.73 605.06 530.26 612.58 525.38 619.53 520.13 625.76 514.8 631.43 509.11 636.21 503.09 639.97 497 642.97 490.6 644.84 483.9 645.53 477.17 645.42 470.16 644.16 462.91 641.77 455.63 638.77 448.13 634.85 440.43 630.11 432.72 625.17 424.81 619.75 416.74 614.04 408.66 608.66 400.61 603.46 392.61 598.6 384.62 594.48 376.67 590.89 368.8 587.86 360.93 585.74 353.13 584.18 345.42 583.14 337.71 582.91 330.09 583.03 322.58 583.41 315.07 584.33 307.67 585.27 300.4 586.11 293.13 587.16 286 587.89 279.02 588.21 272.06 588.46 265.26 588.13 258.66 587.18 252.08 585.98 245.71 584.08 239.57 581.48 233.48 578.56 227.65 574.95 222.09 570.68 216.61 566.11 211.43 560.93 206.58 555.23 201.83 549.27 197.42 542.86 193.4 536.06 189.5 529.09 185.99 521.82 182.9 514.3 179.94 506.68 177.41 498.89 175.34 490.97 173.4 483.01 171.92 474.97 170.91 466.89 170.02 458.81 169.6 450.71 169.66 442.63 169.81 434.56 170.43 426.52 171.51 418.54 172.65 410.56 174.21 402.81 176.15 395.31 178.1 387.8 180.41 380.52 183.03 373.46 185.62 366.36 188.5 359.47 191.65 352.76 194.73 346 198.05 339.39 201.61 332.93 205.06 326.38 208.73 319.93 212.6 313.58 216.36 307.09 220.31 300.66 224.44 294.28 228.46 287.74 232.66 281.21 237.04 274.7 241.32 268.01 245.78 261.32 250.43 254.66 254.98 247.84 259.72 241.05 264.66 234.33 269.52 227.53 274.58 220.85 279.85 214.35 285.05 207.87 290.47 201.66 296.1 195.79 301.69 190.09 307.49 184.84 313.51 180.12 319.5 175.71 325.71 171.93 332.13 168.85 338.53 166.19 345.16 164.29 352 163.19 358.82 162.53 365.86 162.67 373.12 163.61 380.37 164.9 387.84 166.9 395.52 169.56" stroke-dasharray="6 5" transform="rotate(32.32, 400, 400)" opacity="0.70"></path><path d="M399.66 181.91C406.99 184.66 414.36 187.82 421.76 191.31 429.16 194.73 436.59 198.34 444.04 202.07 451.5 205.56 458.98 209.07 466.45 212.56 473.95 215.71 481.44 218.81 488.9 221.84 496.37 224.51 503.82 227.13 511.19 229.73 518.57 232 525.86 234.3 533.03 236.65 540.18 238.77 547.17 241.01 553.97 243.41 560.7 245.67 567.19 248.16 573.39 250.9 579.46 253.58 585.19 256.56 590.53 259.86 598.02 264.99 610.21 277.02 614.71 283.92 618.17 291.23 621.5 307.44 621.34 316.26 620.78 322.26 619.62 328.49 617.88 334.92 615.99 341.36 613.6 347.99 610.76 354.78 607.92 361.57 604.73 368.5 601.24 375.57 597.92 382.64 594.49 389.67 591.02 396.65 587.84 403.64 584.68 410.6 581.58 417.52 578.84 424.47 576.16 431.41 573.57 438.35 571.34 445.35 569.16 452.38 567.03 459.45 565.21 466.63 563.38 473.88 561.52 481.21 559.89 488.68 558.16 496.25 556.29 503.93 554.58 511.75 552.66 519.68 550.52 527.69 548.45 535.8 546.09 543.96 543.44 552.1 540.8 560.27 537.82 568.33 534.5 576.2 531.15 583.93 527.43 591.34 523.36 598.32 519.24 604.97 514.76 611.02 509.93 616.36 505.05 621.16 499.83 625.12 494.29 628.13 488.7 630.46 482.81 631.78 476.63 632.04 470.42 631.62 463.94 630.18 457.21 627.76 450.46 624.83 443.48 621.09 436.29 616.64 429.09 612.04 421.69 607.01 414.11 601.69 406.53 596.67 398.95 591.78 391.41 587.15 383.86 583.17 376.35 579.6 368.9 576.5 361.45 574.19 354.05 572.36 346.74 570.98 339.43 570.32 332.19 569.99 325.05 569.91 317.93 570.36 310.9 570.87 304 571.35 297.11 572.08 290.34 572.6 283.73 572.82 277.14 573.05 270.72 572.83 264.48 572.11 258.28 571.24 252.28 569.78 246.5 567.74 240.78 565.45 235.31 562.55 230.11 559.07 224.98 555.33 220.14 551.03 215.62 546.23 211.2 541.2 207.11 535.72 203.38 529.83 199.77 523.79 196.53 517.4 193.69 510.74 190.97 503.97 188.66 496.98 186.78 489.81 185.02 482.59 183.69 475.23 182.81 467.79 182.04 460.32 181.71 452.79 181.84 445.23 182.05 437.66 182.7 430.08 183.79 422.5 184.94 414.91 186.48 407.51 188.38 400.29 190.29 393.06 192.54 386 195.09 379.12 197.61 372.2 200.42 365.44 203.48 358.81 206.47 352.14 209.71 345.57 213.16 339.12 216.53 332.58 220.11 326.11 223.87 319.72 227.53 313.21 231.38 306.74 235.41 300.31 239.32 293.74 243.42 287.19 247.68 280.67 251.84 274.01 256.18 267.38 260.69 260.78 265.11 254.09 269.71 247.47 274.48 240.95 279.18 234.39 284.07 228 289.14 221.82 294.15 215.7 299.36 209.88 304.76 204.43 310.12 199.16 315.67 194.35 321.43 190.06 327.15 186.09 333.08 182.71 339.21 180 345.32 177.69 351.63 176.08 358.15 175.21 364.66 174.75 371.37 175.02 378.29 176.02 385.2 177.34 392.32 179.32 399.65 181.91" stroke-dasharray="0 6" transform="rotate(36.36, 400, 400)" opacity="0.66"></path><path d="M403.81 194.26C410.77 196.91 417.77 199.96 424.79 203.31 431.82 206.62 438.87 210.13 445.92 213.76 452.99 217.19 460.06 220.67 467.11 224.16 474.18 227.35 481.22 230.51 488.23 233.63 495.23 236.42 502.18 239.18 509.05 241.91 515.91 244.33 522.66 246.77 529.27 249.25 535.84 251.48 542.24 253.81 548.44 256.26 554.55 258.54 560.42 261 565.99 263.66 573.99 267.64 587.89 276.84 593.6 282.14 598.49 287.76 605.26 300.55 607.05 307.7 607.9 315.17 606.46 331.46 604.27 340.2 602.52 346.12 600.32 352.24 597.71 358.56 595.11 364.88 592.18 371.38 588.96 378.06 585.89 384.73 582.7 391.43 579.45 398.13 576.45 404.84 573.43 411.57 570.44 418.31 567.75 425.08 565.09 431.89 562.49 438.73 560.2 445.62 557.94 452.57 555.7 459.58 553.74 466.67 551.77 473.84 549.76 481.09 547.97 488.43 546.09 495.86 544.09 503.36 542.25 510.95 540.25 518.59 538.05 526.26 535.93 533.96 533.58 541.65 530.98 549.24 528.41 556.79 525.55 564.17 522.39 571.3 519.23 578.25 515.75 584.82 511.96 590.94 508.14 596.71 504 601.88 499.54 606.37 492.65 611.96 477.29 618.06 468.88 618.37 463.16 617.7 457.18 616.14 450.95 613.72 444.71 610.89 438.23 607.36 431.55 603.2 424.85 598.93 417.96 594.27 410.88 589.34 403.79 584.68 396.7 580.09 389.62 575.71 382.55 571.87 375.49 568.36 368.48 565.23 361.47 562.78 354.51 560.73 347.61 559.05 340.72 558.02 333.9 557.28 327.17 556.78 320.45 556.78 313.83 556.86 307.32 556.96 300.84 557.35 294.47 557.59 288.26 557.62 282.07 557.74 276.04 557.51 270.19 556.89 261.58 555.63 245.51 550.41 238.12 546.38 231.12 541.56 218.73 529.22 213.41 521.84 210.09 516.65 207.12 511.11 204.53 505.26 202.06 499.31 199.96 493.1 198.27 486.68 196.69 480.2 195.51 473.54 194.76 466.74 194.1 459.91 193.86 452.97 194.04 445.94 194.3 438.91 194.97 431.81 196.07 424.65 197.21 417.49 198.72 410.45 200.58 403.53 202.44 396.61 204.63 389.8 207.1 383.11 209.55 376.4 212.27 369.79 215.23 363.27 218.13 356.72 221.27 350.24 224.62 343.83 227.89 337.35 231.36 330.92 235.01 324.55 238.57 318.08 242.32 311.64 246.22 305.23 250.04 298.73 254.02 292.25 258.16 285.8 262.21 279.27 266.42 272.78 270.79 266.36 275.08 259.89 279.53 253.51 284.15 247.27 288.69 241.04 293.41 235.01 298.3 229.21 303.13 223.52 308.14 218.14 313.32 213.13 318.46 208.33 323.78 203.97 329.29 200.13 334.76 196.58 340.42 193.61 346.27 191.27 352.09 189.28 358.11 187.95 364.32 187.31 370.51 187.02 376.9 187.41 383.48 188.46 390.06 189.8 396.83 191.74 403.8 194.26" stroke-dasharray="0 1" transform="rotate(40.400000000000006, 400, 400)" opacity="0.62"></path><path d="M407.78 206.61C414.38 209.16 420.99 212.08 427.62 215.29 434.25 218.48 440.89 221.86 447.53 225.38 454.17 228.73 460.8 232.16 467.4 235.61 474.01 238.82 480.58 242.01 487.1 245.19 493.6 248.08 500.04 250.94 506.37 253.79 512.68 256.36 518.87 258.93 524.91 261.53 530.89 263.9 536.7 266.34 542.29 268.86 550.43 272.45 565.12 280.23 571.54 284.54 577.32 288.99 586.49 299.1 589.75 304.81 592.2 310.78 594.26 324.09 593.87 331.4 592.75 338.97 588.08 355.3 584.69 364.02 582.31 369.9 579.63 376 576.68 382.3 573.86 388.6 570.91 394.96 567.87 401.37 565.05 407.78 562.18 414.25 559.31 420.77 556.7 427.31 554.09 433.92 551.5 440.58 549.18 447.28 546.87 454.05 544.57 460.88 542.5 467.77 540.42 474.74 538.29 481.76 536.37 488.84 534.37 495.98 532.27 503.14 530.31 510.35 528.22 517.56 525.96 524.74 523.8 531.91 521.44 539 518.87 545.94 516.34 552.79 513.56 559.41 510.54 565.75 507.52 571.87 504.24 577.59 500.68 582.85 495.18 589.94 482.74 600.3 475.82 603.29 468.58 604.74 452.8 602.87 444.29 599.67 438.53 596.96 432.54 593.64 426.35 589.78 420.15 585.84 413.75 581.55 407.17 577 400.59 572.68 393.98 568.4 387.38 564.26 380.79 560.59 374.2 557.17 367.64 554.05 361.1 551.5 354.59 549.28 348.13 547.36 341.69 546.02 335.31 544.92 329.01 544.04 322.73 543.62 316.54 543.29 310.46 543.01 301.43 543 284.1 542.52 275.85 541.73 267.86 540.6 252.98 536.23 246.17 532.89 239.72 528.9 228.36 518.54 223.51 512.25 219.13 505.42 212.26 490.01 209.81 481.56 208.41 475.8 207.38 469.82 206.74 463.65 206.19 457.47 206.03 451.12 206.26 444.64 206.57 438.15 207.26 431.54 208.34 424.82 209.48 418.11 210.95 411.45 212.75 404.87 214.56 398.28 216.67 391.76 219.05 385.3 221.42 378.83 224.04 372.42 226.89 366.06 229.7 359.68 232.73 353.33 235.95 347.04 239.12 340.69 242.47 334.37 246 328.09 249.46 321.75 253.08 315.43 256.86 309.14 260.56 302.8 264.42 296.48 268.43 290.22 272.36 283.9 276.44 277.66 280.67 271.5 284.82 265.33 289.13 259.29 293.59 253.41 297.98 247.59 302.53 241.97 307.23 236.61 311.88 231.38 316.69 226.47 321.66 221.94 326.59 217.62 331.69 213.73 336.95 210.33 342.18 207.22 347.59 204.64 353.16 202.65 358.71 200.98 364.44 199.91 370.34 199.47 376.22 199.35 382.29 199.84 388.53 200.93 394.77 202.28 401.18 204.18 407.77 206.6" stroke-dasharray="1 1" transform="rotate(44.44, 400, 400)" opacity="0.58"></path><path d="M411.43 218.95C417.63 221.39 423.85 224.18 430.06 227.24 436.27 230.28 442.49 233.53 448.68 236.92 461.07 243.27 473.37 249.88 485.37 256.5 497.33 262.15 508.91 267.8 519.87 273.45 530.63 278.24 540.59 283.31 549.46 288.78 557.9 293.76 565.03 299.44 570.6 305.91 575.53 312.2 578.76 319.45 580.13 327.65 580.88 335.81 579.88 344.96 577.15 355.04 575.69 360.08 573.86 365.34 571.69 370.83 569.53 376.32 567.1 382.03 564.41 387.96 561.82 393.89 559.1 399.91 556.28 405.99 553.64 412.09 550.94 418.26 548.21 424.5 543.4 437.02 538.51 449.87 533.62 462.92 529.57 476.1 525.32 489.5 520.81 502.89 516.84 516.28 512.32 529.45 507.15 541.98 502.19 554.01 496.36 564.87 489.62 574.01 482.89 581.9 475.16 587.48 466.47 590.33 457.71 591.53 447.99 589.93 437.41 585.61 432.1 583.05 426.58 579.95 420.87 576.38 415.15 572.77 409.24 568.83 403.15 564.65 397.07 560.67 390.96 556.7 384.84 552.82 378.73 549.33 372.62 546.02 366.54 542.94 354.41 538.25 342.4 534.54 330.69 531.69 319.07 530.47 307.79 529.48 297.04 528.32 286.43 527.82 276.42 526.43 267.2 523.87 258.21 521.2 250.1 517.02 243.04 511.33 236.31 505.28 230.72 497.76 226.42 488.94 222.5 479.85 219.9 469.66 218.76 458.58 218.32 453.01 218.23 447.24 218.51 441.31 218.85 435.36 219.56 429.26 220.62 423.01 221.73 416.76 223.17 410.52 224.9 404.3 226.65 398.08 228.67 391.88 230.96 385.71 235.48 373.34 240.94 361.02 247.18 348.84 253.21 336.54 259.96 324.29 267.31 312.2 274.39 299.98 282.08 287.96 290.29 276.35 298.25 264.84 306.8 253.97 315.88 244.1 324.76 234.79 334.26 226.87 344.33 220.71 354.28 215.58 364.87 212.51 376.07 211.71 381.64 211.73 387.38 212.31 393.27 213.43 399.16 214.78 405.21 216.62 411.42 218.95" stroke-dasharray="3 4" transform="rotate(48.48, 400, 400)" opacity="0.54"></path><path d="M414.57 231.3C426.18 236 437.78 241.84 449.24 248.39 460.71 254.54 472 261 482.96 267.57 493.86 273.32 504.32 279.12 514.14 284.93 523.75 289.98 532.57 295.25 540.34 300.82 547.72 305.89 553.89 311.53 558.63 317.8 562.84 323.84 565.53 330.69 566.58 338.38 567.14 345.97 566.15 354.48 563.65 363.86 560.98 373.21 557.09 383.46 552.13 394.58 547.53 405.71 542.44 417.23 537.11 429.01 532.49 440.83 527.71 452.95 522.85 465.22 518.71 477.54 514.35 489.97 509.74 502.25 505.62 514.41 501.03 526.18 495.89 537.18 490.98 547.63 485.33 556.86 478.93 564.41 472.56 570.83 465.34 575.15 457.27 577.06 449.18 577.6 440.22 575.74 430.49 571.55 420.72 566.61 410.19 560.04 399 552.31 387.81 545.23 376.52 538.28 365.31 531.91 354.15 527.12 343.09 523.07 332.33 519.72 321.64 517.82 311.29 516.15 301.45 514.41 291.75 513.4 282.62 511.74 274.23 509.18 266.07 506.7 258.72 502.99 252.37 498.01 246.31 492.81 241.3 486.31 237.49 478.59 234.01 470.69 231.75 461.69 230.83 451.75 230.2 441.73 230.86 430.89 232.9 419.35 235.1 407.81 238.46 396.13 242.81 384.47 247.13 372.79 252.34 361.07 258.28 349.43 264.05 337.73 270.52 326.06 277.55 314.58 284.36 303.08 291.74 291.83 299.62 281.06 307.28 270.48 315.48 260.61 324.16 251.76 332.67 243.48 341.74 236.55 351.3 231.27 360.77 226.93 370.8 224.45 381.36 224.03 391.87 224.55 402.96 226.99 414.56 231.3" stroke-dasharray="5 4" transform="rotate(52.52, 400, 400)" opacity="0.51"></path><path d="M417.09 243.65C427.87 248.09 438.57 253.58 449.09 259.78 459.6 265.68 469.88 271.95 479.78 278.38 489.61 284.15 498.97 290.02 507.67 295.94 516.19 301.19 523.92 306.63 530.66 312.31 537.08 317.51 542.37 323.16 546.38 329.32 549.96 335.22 552.19 341.8 552.98 349.08 553.4 356.25 552.46 364.22 550.19 372.98 547.8 381.7 544.32 391.26 539.85 401.64 535.68 412.03 531 422.77 526.03 433.75 521.63 444.75 517.01 455.99 512.25 467.3 508.08 478.59 503.68 489.86 499.04 500.86 494.83 511.66 490.2 521.96 485.12 531.41 480.27 540.29 474.79 547.96 468.68 554.04 462.65 559.15 455.87 562.38 448.38 563.49 440.88 563.53 432.64 561.5 423.71 557.5 414.75 552.95 405.12 546.98 394.89 539.96 384.66 533.49 374.35 527.03 364.12 520.93 353.92 516.13 343.85 511.87 334.04 508.15 324.32 505.66 314.91 503.39 305.99 501.11 297.2 499.55 288.96 497.53 281.41 494.85 274.07 492.37 267.49 488.91 261.83 484.4 256.43 479.81 251.99 474.09 248.65 467.28 245.6 460.35 243.66 452.38 242.95 443.48 242.48 434.53 243.2 424.71 245.18 414.14 247.3 403.56 250.5 392.76 254.61 381.87 258.7 370.99 263.63 360.01 269.25 349.07 274.75 338.13 280.9 327.23 287.58 316.54 294.08 305.92 301.13 295.6 308.63 285.8 315.96 276.26 323.78 267.46 332.03 259.66 340.15 252.43 348.75 246.47 357.79 242.05 366.75 238.44 376.2 236.52 386.1 236.43 395.96 237.13 406.31 239.55 417.09 243.65" stroke-dasharray="9 0" transform="rotate(56.56, 400, 400)" opacity="0.47"></path><path d="M418.87 255.99C428.78 260.16 438.57 265.29 448.12 271.1 457.66 276.7 466.93 282.71 475.78 288.94 484.56 294.65 492.85 300.51 500.49 306.44 507.96 311.83 514.68 317.38 520.48 323.13 526.01 328.46 530.52 334.14 533.88 340.22 536.92 346.05 538.77 352.42 539.36 359.38 539.67 366.21 538.81 373.72 536.77 381.91 534.66 390.07 531.57 398.95 527.57 408.57 523.82 418.18 519.55 428.1 514.95 438.17 510.81 448.25 506.4 458.48 501.8 468.67 497.68 478.81 493.31 488.81 488.71 498.43 484.47 507.82 479.87 516.63 474.87 524.54 470.1 531.93 464.8 538.16 458.98 542.92 453.24 546.88 446.88 549.18 439.93 549.66 432.99 549.31 425.41 547.22 417.24 543.46 409.06 539.31 400.29 533.94 391 527.61 381.71 521.74 372.37 515.78 363.11 510.02 353.89 505.3 344.79 500.93 335.96 496.94 327.19 494 318.74 491.22 310.75 488.46 302.88 486.38 295.52 483.98 288.81 481.09 282.27 478.47 276.44 475.09 271.46 470.88 266.69 466.68 262.81 461.54 259.92 455.45 257.28 449.3 255.64 442.21 255.11 434.24 254.79 426.24 255.55 417.4 257.46 407.79 259.49 398.19 262.5 388.31 266.35 378.3 270.21 368.31 274.84 358.2 280.11 348.12 285.29 338.08 291.09 328.11 297.38 318.37 303.54 308.75 310.21 299.47 317.3 290.75 324.25 282.32 331.65 274.62 339.44 267.89 347.12 261.7 355.23 256.68 363.72 253.06 372.14 250.13 380.98 248.71 390.18 248.9 399.37 249.76 408.95 252.13 418.87 255.99" stroke-dasharray="6 4" transform="rotate(60.599999999999994, 400, 400)" opacity="0.43"></path><path d="M419.83 268.34C428.86 272.21 437.72 276.96 446.3 282.36 454.87 287.61 463.12 293.3 470.95 299.24 478.71 304.8 485.97 310.55 492.6 316.41 499.1 321.83 504.89 327.42 509.83 333.17 514.56 338.57 518.39 344.25 521.2 350.24 523.76 356.01 525.29 362.21 525.73 368.86 525.98 375.4 525.2 382.5 523.4 390.15 521.56 397.76 518.84 405.98 515.29 414.81 511.95 423.63 508.09 432.65 503.88 441.74 500.02 450.82 495.86 459.95 491.48 468.93 487.49 477.85 483.23 486.52 478.73 494.74 474.54 502.72 470.02 510.07 465.16 516.54 460.5 522.55 455.41 527.48 449.88 531.1 444.44 534.08 438.49 535.62 432.06 535.62 425.64 535 418.69 532.93 411.25 529.45 403.81 525.71 395.87 520.92 387.5 515.27 379.13 509.99 370.73 504.53 362.44 499.16 354.18 494.59 346.05 490.22 338.18 486.1 330.38 482.83 322.87 479.66 315.8 476.52 308.83 473.99 302.34 471.21 296.44 468.09 290.7 465.27 285.6 461.87 281.27 457.82 277.12 453.85 273.76 449.11 271.31 443.58 269.04 438.04 267.69 431.69 267.33 424.55 267.14 417.39 267.92 409.46 269.73 400.82 271.66 392.18 274.47 383.26 278.05 374.21 281.64 365.18 285.94 356.05 290.84 346.96 295.68 337.93 301.09 329 306.96 320.33 312.74 311.81 318.98 303.66 325.61 296.07 332.14 288.77 339.08 282.19 346.36 276.52 353.55 271.32 361.13 267.2 369.02 264.31 376.86 262.02 385.05 261.04 393.53 261.47 402 262.43 410.79 264.73 419.83 268.34" stroke-dasharray="5 5" transform="rotate(64.64, 400, 400)" opacity="0.39"></path><path d="M419.93 280.68C428.07 284.24 435.98 288.59 443.6 293.54 451.2 298.41 458.47 303.71 465.3 309.3 472.08 314.61 478.37 320.15 484.07 325.83 489.66 331.17 494.6 336.69 498.78 342.36 502.8 347.74 506.02 353.35 508.35 359.21 510.51 364.87 511.78 370.87 512.12 377.22 512.32 383.47 511.64 390.15 510.07 397.25 508.49 404.32 506.13 411.87 503.01 419.86 500.06 427.86 496.61 435.95 492.8 444 489.26 452.04 485.4 460.01 481.29 467.76 477.48 475.42 473.4 482.77 469.09 489.62 465.02 496.25 460.65 502.24 455.99 507.4 449.07 514.07 433.55 521.26 424.85 521.4 418.95 520.61 412.61 518.62 405.88 515.47 399.15 512.14 392.02 507.92 384.54 502.92 377.06 498.22 369.59 493.29 362.25 488.34 354.93 484 347.75 479.73 340.83 475.61 333.97 472.14 327.39 468.72 321.22 465.31 315.13 462.41 309.48 459.33 304.38 456 297.2 451.23 286.29 439.46 282.81 432.15 280.91 427.09 279.81 421.35 279.59 414.96 279.52 408.55 280.3 401.48 282.01 393.79 283.81 386.09 286.41 378.16 289.7 370.12 293 362.1 296.96 354.02 301.45 346 305.91 338.06 310.9 330.25 316.31 322.72 321.66 315.35 327.44 308.36 333.56 301.92 339.62 295.75 346.04 290.26 352.76 285.6 359.43 281.35 366.42 278.04 373.66 275.84 380.88 274.1 388.38 273.5 396.11 274.11 403.83 275.15 411.8 277.34 419.93 280.68" stroke-dasharray="7 5" transform="rotate(68.68, 400, 400)" opacity="0.35"></path><path d="M419.17 293.03C426.39 296.25 433.37 300.19 440.03 304.67 446.68 309.1 452.99 313.97 458.88 319.13 464.72 324.1 470.11 329.32 474.95 334.71 479.7 339.86 483.87 345.18 487.38 350.65 490.76 355.9 493.46 361.35 495.39 366.98 497.21 372.46 498.26 378.2 498.53 384.19 498.7 390.1 498.13 396.32 496.79 402.84 495.45 409.34 493.43 416.18 490.73 423.32 488.16 430.46 485.12 437.58 481.72 444.58 478.52 451.56 474.99 458.37 471.21 464.9 467.65 471.35 463.81 477.43 459.75 482.99 453.81 490.76 440.8 502.27 433.67 505.56 426.35 507.33 410.13 505.25 401.23 501.51 395.21 498.61 388.86 494.93 382.25 490.57 375.64 486.44 369.08 482.05 362.66 477.56 356.25 473.52 350 469.45 344.01 465.43 338.05 461.91 332.37 458.37 327.07 454.82 319.41 450.04 306.53 439.95 301.53 434.29 297.33 428.41 292.44 414.33 291.92 406.01 291.93 400.28 292.7 394.02 294.29 387.25 295.95 380.48 298.32 373.53 301.3 366.53 304.3 359.55 307.88 352.55 311.95 345.66 316 338.84 320.53 332.18 325.45 325.82 330.32 319.6 335.59 313.76 341.16 308.45 346.7 303.37 352.55 298.9 358.66 295.2 364.74 291.81 371.09 289.25 377.65 287.63 384.2 286.38 390.97 286.1 397.91 286.85 404.84 287.92 411.96 289.98 419.17 293.03" stroke-dasharray="2 2" transform="rotate(72.72, 400, 400)" opacity="0.32"></path><path d="M417.59 305.38C430.17 311.21 441.73 319.32 451.76 328.73 461.66 337.69 469.81 347.63 475.71 358.04 481.28 367.86 484.48 378.45 484.98 389.59 485.28 400.51 483.12 412.37 478.46 424.91 474.16 437.44 468.2 449.46 461.22 460.26 454.87 470.79 447.43 479.61 439.21 485.86 431.39 491.28 422.48 493.66 412.7 492.56 403.02 490.71 392.25 485.82 380.73 478.23 369.2 471.33 358.02 463.5 347.78 455.54 337.64 449.03 328.61 442.17 321.27 434.94 314.21 428.56 309.01 421.05 306.21 412.3 303.76 403.72 303.75 393.48 306.57 381.73 309.63 369.98 315.1 357.9 322.33 346.29 329.55 334.93 338.43 324.45 348.42 315.77 358.3 307.82 369.32 302.21 381 299.71 392.63 298.27 405 300.08 417.59 305.38" stroke-dasharray="7 3" transform="rotate(76.76, 400, 400)" opacity="0.28"></path><path d="M415.24 317.72C425.97 322.81 435.7 329.88 444.05 338.14 452.3 346.15 459.02 355.13 463.83 364.57 468.44 373.64 471.08 383.34 471.5 393.38 471.81 403.27 470.06 413.76 466.18 424.5 462.56 435.23 457.42 445.19 451.31 453.84 445.63 462.29 438.93 469.1 431.54 473.68 424.45 477.72 416.45 479.27 407.81 478.03 399.26 476.37 389.9 472.26 380.03 465.88 370.17 460 360.74 453.13 352.2 445.92 343.73 439.71 336.26 433.04 330.28 426.05 324.48 419.71 320.29 412.53 318.11 404.53 316.18 396.69 316.32 387.69 318.84 377.68 321.55 367.67 326.33 357.64 332.61 348.21 338.91 338.97 346.65 330.65 355.35 323.96 363.99 317.81 373.61 313.65 383.73 312.06 393.84 311.22 404.5 313.04 415.24 317.72" stroke-dasharray="8 1" transform="rotate(80.80000000000001, 400, 400)" opacity="0.24"></path><path d="M412.23 330.07C421.11 334.38 429.08 340.36 435.85 347.37 442.55 354.27 447.97 362.08 451.83 370.3 455.57 378.34 457.72 386.88 458.08 395.6 458.4 404.24 457.04 413.2 453.9 422.12 450.94 431.03 446.64 439.04 441.45 445.77 436.54 452.36 430.72 457.48 424.29 460.75 418.07 463.7 411.13 464.67 403.71 463.48 396.36 462.08 388.43 458.74 380.21 453.53 371.98 448.67 364.24 442.82 357.31 436.53 350.42 430.87 344.43 424.7 339.69 418.25 335.07 412.23 331.78 405.6 330.16 398.47 328.69 391.48 328.93 383.72 331.12 375.41 333.45 367.1 337.49 359.03 342.79 351.64 348.11 344.38 354.66 338.03 361.99 333.09 369.31 328.51 377.43 325.58 385.94 324.7 394.44 324.32 403.35 326.04 412.23 330.07" stroke-dasharray="4 4" transform="rotate(84.84, 400, 400)" opacity="0.20"></path><path d="M408.69 342.42C415.74 345.92 422.01 350.76 427.3 356.44 432.55 362.11 436.78 368.54 439.78 375.35 442.72 382.08 444.43 389.21 444.76 396.41 445.07 403.58 444.06 410.88 441.62 417.97 439.3 425.06 435.85 431.24 431.64 436.29 425.17 443.13 409.34 449.68 400.35 448.96 394.29 447.86 387.83 445.26 381.24 441.19 374.64 437.33 368.51 432.57 363.11 427.34 357.72 422.47 353.1 417.1 349.5 411.46 345.96 406.08 343.5 400.27 342.34 394.19 341.29 388.19 341.57 381.77 343.4 375.12 345.32 368.47 348.6 362.23 352.87 356.7 357.18 351.23 362.47 346.61 368.38 343.15 374.31 339.91 380.85 337.97 387.68 337.62 394.52 337.55 401.64 339.1 408.69 342.42" stroke-dasharray="8 6" transform="rotate(88.88, 400, 400)" opacity="0.16"></path><path d="M404.78 354.76C415.25 360.17 423.3 369.4 427.75 379.85 432.12 390.22 432.94 401.83 429.35 412.38 426 422.93 419.19 430.29 410.89 433.41 402.84 436.3 393.01 434.9 383.07 428.84 373.13 423.26 364.88 414.79 359.7 405.57 354.65 396.89 352.88 386.82 355.68 376.82 358.68 366.82 365.69 358.74 374.57 354.14 383.52 349.95 394.3 349.78 404.78 354.76" stroke-dasharray="8 3" transform="rotate(92.92, 400, 400)" opacity="0.13"></path><path d="M400.66 367.11C407.57 370.76 412.87 376.95 415.82 383.97 418.75 391 419.38 398.83 417.07 405.8 412.56 415.12 395.67 420.86 385.65 416.5 378.98 412.77 373.58 406.92 370.3 400.45 367.05 394.19 366 387.08 367.96 380.38 370.01 373.68 374.7 368.62 380.62 365.98 386.58 363.5 393.74 363.65 400.66 367.11" stroke-dasharray="1 6" transform="rotate(96.96, 400, 400)" opacity="0.09"></path></g></svg>